<svg xmlns="http://www.w3.org/2000/svg" viewBox="40 8 420 472" role="img" aria-label="Orca-Tech">
  <path
    fill="#fff"
    fill-rule="evenodd"
    d="M136.5 17.027C132.65 19.723 127.925 23.016 126 24.345C116.144 31.148 100.946 45.093 92.59 55C65.588 87.015 51.097 119.169 44.395 161.941C42.396 174.702 42.94 208.586 45.361 222C47.162 231.984 52.24 251.936 54.56 258.148C57.57 266.208 62.392 277.474 64.339 281C65.402 282.925 67.846 287.425 69.771 291C72.79 296.611 81.918 310.369 85.693 315C86.366 315.825 88.318 318.3 90.032 320.5C97.986 330.711 115.102 346.673 116.903 345.56C117.509 345.186 116.971 342.504 115.516 338.638C112.96 331.847 110.526 317.07 111.472 314.088C112.392 311.188 115.654 308.755 117.735 309.416C118.769 309.744 122.739 313.19 126.557 317.073C141.14 331.905 150.733 338.657 173 349.764C185.5 355.999 188.43 357.217 197.5 359.954C200.8 360.95 209.718 363.64 217.319 365.932C247.088 374.908 256.318 382.358 262.622 402.5C264.308 407.887 264.495 411.946 264.453 442.25C264.413 470.881 264.623 476 265.837 476C268.1 476 275.11 473.919 279.739 471.873C282.071 470.843 284.283 470 284.655 470C285.027 470 288.52 468.003 292.416 465.563C311.345 453.707 321.912 435.432 325.522 408.309C328.03 389.467 327.365 371.221 322.393 322.5C320.57 304.636 320.938 287.83 323.399 276.5C325.349 267.522 327.908 258.318 329.515 254.5C330.209 252.85 331.112 250.375 331.522 249C331.931 247.625 334.193 242.442 336.549 237.483C347.704 214.001 373.349 186.98 393.47 177.509C403.796 172.648 408.991 171.131 417.825 170.394C424.952 169.8 426.275 169.983 431.12 172.23C434.079 173.603 438.156 176.406 440.18 178.459C443.473 181.801 448.991 191.267 449.006 193.6C449.021 196.151 451.236 202 452.187 202C453.601 202 452.584 171.396 450.957 165C450.328 162.525 449.7 160.05 449.563 159.5C447.324 150.543 445.258 146.538 440.181 141.306C417.756 118.198 357.282 128.168 298.093 164.732C279.425 176.265 274.624 178.326 265.288 178.816C259.846 179.101 253.754 178.629 247.281 177.419C227.071 173.642 208.328 175.441 191 182.822C173.973 190.074 171.302 192.331 176.853 194.779C184.012 197.937 193 211.093 193 218.412C193 220.321 193.367 222.109 193.816 222.386C194.265 222.664 197.889 222.217 201.87 221.393C205.851 220.569 211.221 220.042 213.804 220.222L218.5 220.55 215.5 221.89C207.833 225.314 194.227 228.392 179.548 230.023C160.884 232.096 143.78 229.501 129.775 222.472C121.962 218.551 119.227 216.595 111.639 209.5C104.537 202.859 96.417 188.092 93.637 176.762C91.891 169.648 91.33 156.543 92.555 151.5C94.143 144.96 102.523 132 105.163 132C105.728 132 107.386 131.164 108.846 130.141C110.306 129.119 114.2 127.217 117.5 125.914C123.133 123.689 124.54 123.565 140.5 123.882C149.85 124.067 162.935 124.282 169.577 124.359L181.654 124.5 190.254 120.238C202.257 114.289 212.564 103.899 214.548 95.75C215.362 92.404 214.676 92.347 208.377 95.239C204.194 97.159 201.792 97.479 191.5 97.489C178.929 97.501 177.735 97.185 159.5 89.037C153.389 86.306 146.354 84.806 141.532 85.206L136.273 85.642 139.21 79.365C143.267 70.696 143.874 61.381 141.12 50.083C138.505 39.353 138.818 29.633 142.025 22C143.296 18.975 144.935 15.79 145.668 14.921C149.709 10.133 144.703 11.282 136.5 17.027Z"
  />
</svg>
